<?xml version="1.0" encoding="utf-8"?>
<!-- Generator: Adobe Illustrator 17.1.0, SVG Export Plug-In . SVG Version: 6.00 Build 0)  -->
<!DOCTYPE svg PUBLIC "-//W3C//DTD SVG 1.1//EN" "http://www.w3.org/Graphics/SVG/1.1/DTD/svg11.dtd">
<svg version="1.1"
	 id="svg81" xmlns:rdf="http://www.w3.org/1999/02/22-rdf-syntax-ns#" xmlns:dc="http://purl.org/dc/elements/1.1/" xmlns:svg="http://www.w3.org/2000/svg" xmlns:cc="http://creativecommons.org/ns#"
	 xmlns="http://www.w3.org/2000/svg" xmlns:xlink="http://www.w3.org/1999/xlink" x="0px" y="0px" viewBox="0.7 0 383.6 381.3"
	 enable-background="new 0.7 0 383.6 381.3" xml:space="preserve">
<path id="path5" fill="#FFFFFF" d="M371,193c0-0.3,0-0.3,0-0.3c-0.3-1-0.3-1-0.3-1c-25.3-82-25.3-82-25.3-82c-1-2.7-1-2.7-1-2.7
	c-0.3-0.7-0.3-0.7-0.3-0.7c-57-66-57-66-57-66c-0.3-0.7-0.3-0.7-0.3-0.7C284,39,284,39,284,39C179.7,11,179.7,11,179.7,11
	c0-0.3,0-0.3,0-0.3c0-6-5-10.7-11-10.7S158,4.7,158,10.7c0,0.7,0,1,0,1.7C34.7,62,34.7,62,34.7,62c0,10,0,10,0,10c-5,1-9,5.3-9,10.7
	c0,3.3,1.3,6,3.7,8c-20.7,34-20.7,34-20.7,34c4.3,57,4.3,57,4.3,57c0.3,1.7,0.3,1.7,0.3,1.7c0,1,0,1,0,1c1,0.7,1,0.7,1,0.7
	c1,0.7,1,0.7,1,0.7C87,230,87,230,87,230c-0.7,1.3-1,2.7-1,4.3c0,6,5,10.7,11,10.7c1,0,2,0,3-0.3c7,30,7,30,7,30
	c0.7,2.3,0.7,2.3,0.7,2.3c1.3,0,1.3,0,1.3,0c83.7-9.7,83.7-9.7,83.7-9.7c7.3,29,7.3,29,7.3,29c-4.7,1.3-8.3,5.7-8.3,10.7
	c0,6,4.7,10.7,10.7,10.7s11-4.7,11-10.7c0-1.3-0.3-2.3-0.7-3.7c9.3-4.3,9.3-4.3,9.3-4.3c26.7,26,26.7,26,26.7,26
	c-1.7,2-2.3,4.3-2.3,6.7c0,6,4.7,10.7,10.7,10.7s11-4.7,11-10.7c0-5-3.3-9.3-8-10.3c0-10.3,0-10.3,0-10.3
	c54.3-19.3,54.3-19.3,54.3-19.3c1.3-0.3,1.3-0.3,1.3-0.3c0.7-1.7,0.7-1.7,0.7-1.7C330,256,330,256,330,256c11.3,2,11.3,2,11.3,2
	c0.7,0.3,0.7,0.3,0.7,0.3c1,0,1,0,1,0c0.7-1.7,0.7-1.7,0.7-1.7c26.3-60.3,26.3-60.3,26.3-60.3c1-1.7,1-1.7,1-1.7l0,0
	c0.3-1,0.3-1,0.3-1L371,193z M366.3,186c-62-85.7-62-85.7-62-85.7c0.7-1,1.3-1.7,1.7-3c26.7,8.3,26.7,8.3,26.7,8.3
	c9.3,3,9.3,3,9.3,3L366.3,186z M322,211.7c0.3,0.7,0.3,1.3,0.3,2c0,2.3-1,4-2.3,5.7c-0.3,0.7-1.3,1-2,1.7c-1,0.3-2.3,0.7-3.7,0.7
	c-2.3,0-4.7-1-6-2.7c-0.7-0.7-1-1.7-1.3-2.3c-0.3-1-0.7-2-0.7-3c0-0.7,0-1.3,0.3-2c0.3-1,0.7-1.7,1-2.3c1-1.7,2.7-2.7,4.7-3.3
	c0.7,0,1.3-0.3,2-0.3c0.3,0,0.3,0,0.7,0c2.3,0.3,4.7,1.7,6,3.7C321.3,210,321.7,210.7,322,211.7z M298,276c0,1,0,1.7-0.3,2.7
	c-0.3,0.7-0.7,1.7-1.3,2.3c-1.3,1.7-3.7,3-6.3,3c-1.7,0-3.3-0.7-4.7-1.3c-0.7-0.7-1.3-1.3-2-2c-0.3-0.7-0.7-1.7-1-2.7
	c-0.3-0.7-0.3-1.3-0.3-2c0-0.3,0-0.3,0-0.7c0.3-4,3.7-7,7.3-7.3c0.3,0,0.3,0,0.7,0c0.7,0,1.3,0,2,0.3c1.7,0.3,3,1.3,4,2.3
	c0.7,0.7,1,1.7,1.3,2.3C297.7,274,298,275,298,276z M292.3,265.3c0.7-3.3,0.7-3.3,0.7-3.3c1.3-12.3,1.3-12.3,1.3-12.3
	c31,5.7,31,5.7,31,5.7c-15.7,8-15.7,8-15.7,8c-11,6-11,6-11,6C297,267.3,295,266,292.3,265.3z M290.7,259.3c-1,6-1,6-1,6
	c-5.7,0-10.3,4.7-10.3,10.3c-11.7,2-11.7,2-11.7,2c-0.3-1-0.7-2-1.3-3c25-23,25-23,25-23L290.7,259.3z M251,285.3
	c-0.7-0.7-1-1.7-1.3-2.3c-0.3-1-0.7-1.7-0.7-2.7c0-0.3,0-0.7,0-1c0.3-0.7,0.3-1.7,0.7-2.3c0.7-1.3,1.7-2.7,3-3.3
	c0.7-0.7,1.7-1,2.7-1.3c0.3,0,1,0,1.7,0c2.3,0,4.3,0.7,5.7,2.3c0.7,0.3,1.3,1.3,1.7,2c0,0.3,0.3,0.7,0.3,1.3
	c0.3,0.7,0.3,1.3,0.3,2.3c0,0,0,0,0,0.3c0,3.3-2.3,6-5,7c-1,0.3-2,0.7-2.7,0.7c-0.3,0-0.3,0-0.3,0c-0.7,0-1.3-0.3-2-0.3
	c-1-0.3-1.7-0.7-2.7-1.3C252,286.3,251.3,285.7,251,285.3z M146.7,261.7C145,263,143,264,141,264c-1.3,0-2.3-0.3-3.3-0.7
	c-1-0.3-1.7-1-2.3-1.7c-1.7-1.7-2.3-3.7-2.3-5.7c0-1,0-2,0.3-2.7c0.3-1,0.7-1.7,1.3-2.3c1.3-2,3.7-3,6.3-3c3,0,5.7,1.7,7,4.3
	c0.3,0.7,0.7,1.7,0.7,2.7c0.3,0.3,0.3,0.7,0.3,1c0,1-0.3,2-0.7,3C148,260,147.3,260.7,146.7,261.7z M62.3,170.3c0,4.3-3.7,8-8,8
	c-3,0-5.3-1.3-6.7-3.3c-0.7-1-1-1.7-1.3-2.7c0-0.7,0-1.3,0-2c0-3.3,1.7-6,4.3-7.3c1-0.3,1.7-0.7,2.7-0.7c0.3,0,0.7,0,1,0
	c1.3,0,2.7,0.3,3.7,1c1,0.3,1.7,1,2,1.7c0.7,0.7,1.3,1.7,1.7,2.7C62,168.3,62.3,169.3,62.3,170.3z M47,84.7c65,2.7,65,2.7,65,2.7
	C59.7,161,59.7,161,59.7,161c-1.7-1-3.3-1.3-5.3-1.3c-0.7,0-1,0-1.7,0c-11-55.3-11-55.3-11-55.3C39.3,93,39.3,93,39.3,93
	C43.3,92,46.3,88.7,47,84.7z M61.7,162.7C115,87.3,115,87.3,115,87.3c23,1,23,1,23,1c0.3,4.3,3,8,6.7,9.3C133,145,133,145,133,145
	c-68.7,21.7-68.7,21.7-68.7,21.7C64,165.3,63,163.7,61.7,162.7z M164.3,20.7C150,77,150,77,150,77c-0.3,0-0.7,0-1,0
	c-5.3,0-9.7,3.7-10.7,8.7c-21.3-1-21.3-1-21.3-1C163,20,163,20,163,20C163.3,20,164,20.3,164.3,20.7z M177.7,17
	c109,71,109,71,109,71c-0.7,1-1,2.3-1.3,3.7c-125.7-5-125.7-5-125.7-5c-0.3-4.3-3.3-7.7-7-9C167,21.3,167,21.3,167,21.3
	c0.7,0.3,1,0.3,1.7,0.3C172.3,21.7,175.7,19.7,177.7,17z M291,87.3c1-1,2.3-1.3,3.7-1.7c0.3,0,1-0.3,1.3-0.3c0.7,0,1,0.3,1.3,0.3
	c4,0.7,6.7,4,6.7,7.7c0,0.3,0,0.7,0,0.7c0,1-0.3,1.7-0.7,2.7c0,0.3-0.3,1-0.7,1.3c-0.3,0.7-1,1.3-2,2l-0.3,0.3c-1,0.3-1.7,0.7-2.7,1
	c-0.7,0-1,0-1.7,0s-1.7,0-2.3-0.3c-1-0.3-1.7-0.7-2.7-1.3c0,0-0.3-0.3-0.7-0.7c-1-1-1.7-2.3-2-3.7c0-0.3-0.3-0.7-0.3-1
	c0-0.3,0-0.7,0-1c0-0.3,0-1,0.3-1.7c0-0.7,0.3-1.3,0.7-2.3C289.7,88.7,290.3,88,291,87.3z M233.3,185c0,0.7,0,1.7-0.3,2.3
	c-1,2-2.3,3.3-4.3,4.3c-0.7,0.3-1.7,0.7-2.3,0.7c-0.3,0-0.7,0-0.7,0c-2.3,0-4.3-1-5.7-2.3c-0.7-0.7-1.3-1.3-1.7-2
	c0-0.3,0-0.3-0.3-0.7c-0.3-0.7-0.3-1.7-0.3-2.3c0-0.3,0-0.3,0-0.7c0-0.3,0-0.7,0-1c0-1,0.3-1.7,0.7-2.7c1.3-2.7,4-4.3,7.3-4.3
	c1,0,2,0.3,3,0.7s1.7,1,2.3,1.7c1.7,1.3,2.7,3.3,2.7,5.7C233.7,184.7,233.7,184.7,233.3,185z M151.7,175.3c-0.7-0.7-1-1.7-1.3-2.3
	c-0.3-1-0.3-1.7-0.3-2.7c0-4.3,3.3-8,8-8c2.3,0,4.7,1.3,6.3,3c0.3,0.7,1,1.7,1,2.3c0.3,0.7,0.3,1.3,0.7,2c0,0.3,0,0.3,0,0.7
	c0,0.7-0.3,1.3-0.3,2c-1,3.3-4,6-7.7,6c-1.3,0-2.7-0.3-4-1c-0.7-0.3-1.3-1-2-1.7L151.7,175.3z M158,181c5,0,9.3-3.3,10.3-8
	c46.7,9.7,46.7,9.7,46.7,9.7c-0.3,0.7-0.3,1-0.3,1.7c0,0.7,0,1,0,1.3C113,222,113,222,113,222c39-42.7,39-42.7,39-42.7
	C153.7,180.7,155.7,181,158,181z M225.7,173.7c-4.7,0-8.3,2.7-10,6.3c-47-9.7-47-9.7-47-9.7c0-1.3-0.3-2.7-0.7-4
	c120-65.7,120-65.7,120-65.7c0.3,0.3,0.7,1,1.3,1.3c-48,59.3-48,59.3-48,59.3c-10.7,13.3-10.7,13.3-10.7,13.3
	C229,174,227.3,173.7,225.7,173.7z M141,87.7c0-0.7,0-1.3,0.3-2c0.7-3.3,4-6,7.7-6h0.3c1,0.3,2,0.3,2.7,0.7c2.3,1,4.3,3.3,4.7,6
	c0.3,0.7,0.3,1,0.3,1.3c0,0.7,0,1-0.3,1.3c-0.3,4-3.7,6.7-7.7,6.7c-0.3,0-0.7,0-1,0c-0.7,0-1.7-0.3-2.3-0.7c-2.7-1-4.3-3.7-4.7-6.7
	C141,88.3,141,88,141,87.7z M149,98.7c5.3,0,10-4,10.7-9.3c125.7,5,125.7,5,125.7,5c0,0.7,0,1.3,0.3,1.7C136,144,136,144,136,144
	c11.3-45.7,11.3-45.7,11.3-45.7C148,98.7,148.3,98.7,149,98.7z M135,147c132-42,132-42,132-42c18-6,18-6,18-6
	c-118.3,65-118.3,65-118.3,65c-2-2.7-5-4.3-8.7-4.3c-6,0-11,4.7-11,10.7c0,1.3,0.3,2.7,1,4c-51.3,28-51.3,28-51.3,28L135,147z
	 M149,176.7c0.3,0.3,0.7,0.7,1,1c-41,45-41,45-41,45c-14.3-16-14.3-16-14.3-16L149,176.7z M215.7,188.3c0,0.7,0.3,1,0.7,1.7
	C150,250.3,150,250.3,150,250.3c-1.7-3-5.3-5.3-9-5.3c-3.3,0-6.3,1.7-8.3,3.7c-21-23.3-21-23.3-21-23.3L215.7,188.3z M151.3,253
	c66.7-61,66.7-61,66.7-61c2,2,4.7,3,7.7,3c0.3,0,0.7,0,1.3,0c17,64,17,64,17,64c-0.7,0-0.7,0-0.7,0c-92,0-92,0-92,0
	c0.3-1,0.3-2,0.3-3S151.7,253.7,151.3,253z M245,261.7c0.3,0,0.3,0,0.3,0l0,0c0,0.3,0,0.3,0,0.3c6,9,6,9,6,9c-2,1.3-3.3,3.3-4.3,5.3
	c-45.3-10-45.3-10-45.3-10c39-4.3,39-4.3,39-4.3L245,261.7z M264.7,272.7c-1.7-2-4.7-3.3-7.7-3.3c-1,0-2.3,0.3-3.3,0.7
	c-5.7-9-5.7-9-5.7-9c40.3-10.3,40.3-10.3,40.3-10.3L264.7,272.7z M260,255.3c-7.3,1.7-7.3,1.7-7.3,1.7
	c17.3-11.7,17.3-11.7,17.3-11.7c17,3,17,3,17,3L260,255.3z M269.3,242.3C246.7,258,246.7,258,246.7,258c-17-63.7-17-63.7-17-63.7
	c2.7-1,4.7-3.3,6-6c68.3,22.3,68.3,22.3,68.3,22.3c-0.3,1-0.3,2-0.3,3c0,1.7,0.3,3,0.7,4.7L269.3,242.3z M305,208.3
	c-68.7-22.7-68.7-22.7-68.7-22.7c0-0.3,0-1,0-1.3c0-3.3-1.3-6-3.7-8c11.7-14.3,11.7-14.3,11.7-14.3c47.3-58.7,47.3-58.7,47.3-58.7
	c1.3,0.7,2.7,1,4.3,1c0.7,0,1.3,0,2-0.3c8.3,60,8.3,60,8.3,60l0,0c5.7,39.3,5.7,39.3,5.7,39.3C309,204,306.3,205.7,305,208.3z
	 M300.7,103.3c0.7-0.3,1.3-0.7,1.7-1c63.7,88,63.7,88,63.7,88c-56.7-25-56.7-25-56.7-25L300.7,103.3z M339.3,105
	c-32.7-10-32.7-10-32.7-10c0-0.7,0.3-1,0.3-1.7c0-5.7-4.7-10.3-10.3-10.7c-8.3-37-8.3-37-8.3-37L339.3,105z M284.7,42
	c9.3,41,9.3,41,9.3,41c-2,0.3-4,1.3-5.7,2.7c-109.7-71-109.7-71-109.7-71c0.3-0.3,0.3-0.7,0.3-1L284.7,42z M160.7,10.7
	c0-4.3,3.7-8,8-8c4.3,0,7.7,3.3,8,7.7v0.3c0,1,0,1.7-0.3,2.3l0,0c-0.3,1-0.7,1.7-1,2.3c-1.7,2-4,3.3-6.7,3.3c-0.3,0-0.7,0-1,0
	c-1,0-1.7-0.3-2.7-0.7c0-0.3-0.3-0.3-0.7-0.3c-0.7-0.7-1.3-1.3-2-2c0-0.3-0.3-0.7-0.7-1c-0.3-1-1-2-1-3.3
	C160.7,11,160.7,11,160.7,10.7z M159.3,16c0.3,1,1,1.7,1.3,2c-47,66.7-47,66.7-47,66.7C47.3,82,47.3,82,47.3,82c0-1.3-0.3-2.3-1-3.3
	L159.3,16z M37.3,63.7C149,19,149,19,149,19c-2.7,1.3-2.7,1.3-2.7,1.3C45,76.3,45,76.3,45,76.3c-1.7-2.7-4.7-4.3-7.7-4.3V63.7z
	 M28.7,82.7c0-3.7,2.3-7,6-7.7c0.7-0.3,1-0.3,2-0.3c0,0,0.3,0,0.7,0c2,0.3,4,1.3,5.3,3c0.7,0.7,1,1.3,1.3,2.3c0.3,0.7,0.3,1.3,0.3,2
	c0,0,0.3,0.3,0.3,0.7c0,0.7-0.3,1.3-0.3,2c-0.7,2.7-3,5-5.7,5.7c-0.7,0.3-1.3,0.3-2,0.3c-0.3,0-0.3,0-0.7,0h-0.3
	c-2-0.3-3.7-1-4.7-2.3C29.3,87,28.7,85,28.7,82.7z M15,174.3c-3.7-49-3.7-49-3.7-49c20.3-33,20.3-33,20.3-33c0.3,0,0.3,0.3,0.7,0.3
	c-5,23.3-5,23.3-5,23.3L15,174.3z M35,93.3c0.7,0,1,0,1.7,0l0,0c13.7,67,13.7,67,13.7,67c-4,1.7-7,5.3-7,10c0,1,0.3,2,0.3,3
	c-27.3,8.3-27.3,8.3-27.3,8.3L35,93.3z M44.7,175.7c2,3.3,5.7,5.3,9.7,5.3c5.7,0,10.7-4.7,10.7-10.7c0-0.3,0-0.7,0-1
	c65.7-21,65.7-21,65.7-21C92.3,204,92.3,204,92.3,204c-0.3,0.7-0.3,0.7-0.3,0.7c-1.3-0.3-1.3-0.3-1.3-0.3
	c-71.3-20.7-71.3-20.7-71.3-20.7L44.7,175.7z M23.7,187.7C90.3,207,90.3,207,90.3,207c1,0.3,1,0.3,1,0.3c0.3,1,0.3,1,0.3,1
	c2,8.7,2,8.7,2,8.7c1.7,6.7,1.7,6.7,1.7,6.7c-3,0.3-5.3,1.7-7,4L23.7,187.7z M99.3,242c-0.7,0-1.7,0.3-2.3,0.3c-4.7,0-8-3.7-8-8
	c0-1,0-2,0.3-3c0.3-0.7,1-1.7,1.3-2.3c1.3-1.3,3-2.3,5-2.7c0.7,0,1,0,1.3,0s1,0,1.7,0c3.7,1,6.3,4,6.3,8c0,2.3-1.3,4.7-3,6.3
	C101,241,100.3,241.7,99.3,242z M102.7,243.3c3-1.7,5-5.3,5-9c0-5.7-4.3-10.3-9.7-11c-2.3-9.7-2.3-9.7-2.3-9.7C95,211,95,211,95,211
	c12.3,13.7,12.3,13.7,12.3,13.7c1.7,1.7,1.7,1.7,1.7,1.7c22.3,24.7,22.3,24.7,22.3,24.7c-1,1.7-1.3,3-1.3,5c0,2.7,1,5,2.7,6.7
	C126,266,126,266,126,266c-16.7,7.7-16.7,7.7-16.7,7.7L102.7,243.3z M193.3,264.7c-1.3,0-1.3,0-1.3,0c-6.7,0.7-6.7,0.7-6.7,0.7l0,0
	c-69,8-69,8-69,8c12.3-5.7,12.3-5.7,12.3-5.7c6-3,6-3,6-3c1.7,1.3,4,2,6.3,2c3.7,0,7-2,9-5c69.7,0,69.7,0,69.7,0c-26,3-26,3-26,3
	H193.3z M210.3,307c0,4.3-3.3,8-8,8c-4.3,0-8-3.7-8-8c0-3.7,2.7-7,6.3-7.7c0.7-0.3,1.3-0.3,1.7-0.3c0.3,0,0.7,0,1,0
	c2.3,0.3,4.3,1.7,5.7,3.3c0.3,0.7,1,1.7,1,2.3C210.3,305.3,210.3,306.3,210.3,307z M219.7,297c-8,4-8,4-8,4c-2-2.7-5.3-4.7-9-4.7
	c-7.3-28.7-7.3-28.7-7.3-28.7c51,11.3,51,11.3,51,11.3c0,0.3,0,0.7,0,1.3c0,1.3,0.3,2.7,0.7,4L219.7,297z M224.3,298
	c18.7-9,18.7-9,18.7-9c5.3-2.3,5.3-2.3,5.3-2.3c0.7,0.7,1.7,1.7,2.7,2.3c-14.3,20.7-14.3,20.7-14.3,20.7L224.3,298z M265,331.7
	c0,4.3-3.3,8-8,8c-4.3,0-8-3.7-8-8c0-1.7,0.7-3.3,1.7-4.7c0.3-0.7,1-1.3,1.7-2c1.3-0.7,3-1.3,4.7-1.3c0.3,0,0.3,0,0.3,0
	c0.7,0,1.7,0.3,2.7,0.3C263,325.3,265,328.3,265,331.7z M257,321c-2.3,0-4.7,0.7-6.7,2c-11.7-11.3-11.7-11.3-11.7-11.3
	c14.7-21.3,14.7-21.3,14.7-21.3c1,0.3,2.3,0.7,3.7,0.7c0.3,0,0.3,0,0.3,0c0,18.7,0,18.7,0,18.7c0,2.3,0,2.3,0,2.3c0,1.7,0,1.7,0,1.7
	c0,7.3,0,7.3,0,7.3H257z M260,290.7c4.7-1.3,8-5.3,8-10.3c0-0.3,0-0.3,0-0.3c11.3-1.7,11.3-1.7,11.3-1.7c0.7,1.7,1.3,3.3,2.3,4.3
	c-21.7,24-21.7,24-21.7,24V290.7z M263,307c20.3-22.3,20.3-22.3,20.3-22.3c2,1.3,4.3,2,6.7,2c3.7,0,6.7-1.7,8.7-4.3
	c12.7,7.7,12.7,7.7,12.7,7.7L263,307z M314,288.3c-14-8.3-14-8.3-14-8.3c0.7-1.3,0.7-2.7,0.7-4c0-1.7,0-3-0.7-4.3c9.7-5,9.7-5,9.7-5
	c17-9,17-9,17-9L314,288.3z M331,253.7c-2-0.3-2-0.3-2-0.3c-33-6-33-6-33-6c-1.3-0.3-1.3-0.3-1.3-0.3c-1,0-1,0-1,0
	c-0.3,0-0.3,0-0.3,0l0,0c-0.3,0-0.3,0-0.3,0c-0.3-0.3-0.3-0.3-0.3-0.3c-8.3-1.3-8.3-1.3-8.3-1.3C273,243,273,243,273,243
	c33-22.7,33-22.7,33-22.7c2,2.7,5,4.3,8.3,4.3c2,0,3.7-0.7,5-1.3c20,31.7,20,31.7,20,31.7L331,253.7z M321.7,221.7
	c2-2,3.3-4.7,3.3-8c0-1,0-2-0.3-3C341,205,341,205,341,205c1,48.7,1,48.7,1,48.7L321.7,221.7z M342,201.7
	c-18.3,6.7-18.3,6.7-18.3,6.7c-2-3.3-5.3-5.3-9-5.3c-0.7-2.7-0.7-2.7-0.7-2.7c-4.3-32-4.3-32-4.3-32c56.7,25,56.7,25,56.7,25
	L342,201.7z M344.3,248.3c-0.7-44.3-0.7-44.3-0.7-44.3c0.7,0,0.7,0,0.7,0c23-8.3,23-8.3,23-8.3L344.3,248.3z"/>
<path id="path37" fill="none" stroke="#FFFFFF" stroke-width="1.3333" stroke-miterlimit="10" d="M21,335c2,4.7,3.7,9.3,5.7,14
	c1.7,4.7,3.7,9.3,5.3,14c-22,0-22,0-22,0C21,335,21,335,21,335z M39,380c1.7,0,1.7,0,1.7,0C22,332.7,22,332.7,22,332.7
	c-1.7,0-1.7,0-1.7,0C1.7,380,1.7,380,1.7,380c1.7,0,1.7,0,1.7,0c6.3-15.3,6.3-15.3,6.3-15.3c23,0,23,0,23,0C39,380,39,380,39,380z"
	/>
<path id="path39" fill="none" stroke="#FFFFFF" stroke-width="1.3333" stroke-miterlimit="10" d="M75.3,344c1.7-0.3,1.7-0.3,1.7-0.3
	c-0.3-0.7-0.3-0.7-0.3-0.7c-0.3-1.7-1-3.3-2-4.3c-0.7-1.3-2-2.7-3.3-3.3c-1.3-1-3-1.7-4.7-2c-1.7-0.3-3.3-0.7-5-0.7c-2,0-4,0.3-6,1
	c-2,0.3-3.7,1.3-5.3,2.3c-1.3,1.3-2.7,2.7-3.3,4.3c-1,1.7-1.3,3.7-1.3,6c0.3,2.7,1,4.3,2,6c1,1.3,2.3,2.3,4,3c1.3,0.7,3,1.3,5,1.3
	c1.7,0.3,3.3,0.7,5.3,0.7c1.3,0.3,3,0.3,4.7,0.7c1.7,0.3,3,0.7,4.3,1.3c1.3,0.3,2.3,1,3.3,2s1.7,2.3,2,3.7c0.3,1,0.3,1.7,0.3,2.7
	c0,1.7-0.3,3.3-1.3,5c-1,1.3-2,2.7-3.3,3.7c-1.7,1-3.3,1.7-5,2.3c-1.7,0.3-3.7,0.7-5.3,0.7c-1.7,0-3.3-0.3-5-0.7c-1.3-0.3-3-1-4.3-2
	c-1.3-1-2.7-2-3.7-3.3c-1-1-1.3-2.7-1.7-4.3c0-0.7,0-0.7,0-0.7c-1.7,0.3-1.7,0.3-1.7,0.3c0,0.7,0,0.7,0,0.7c0.3,1.7,1,3.3,2,5
	c1,1.3,2.3,2.7,4,3.7c1.3,0.7,3,1.7,5,2c1.7,0.7,3.3,0.7,5.3,0.7s4-0.3,6-0.7c2-0.7,3.7-1.7,5.3-2.7c1.3-1,2.7-2.3,3.7-4
	c1-1.7,1.7-3.7,1.7-5.7c0-0.7-0.3-1-0.3-1.3c0-0.7,0-1,0-1.7c-0.7-1.7-1.3-3-2.3-4.3c-1-1-2.3-1.7-3.7-2.3c-1.7-0.7-3-1-4.7-1.3
	c-1.7-0.3-3.7-0.7-5.3-0.7c-1.7-0.3-3.3-0.3-5-0.7c-1.7-0.3-3.3-0.7-4.7-1.3c-1.3-0.7-2.3-1.7-3.3-2.7c-1-1.3-1.7-3-1.7-5s0-3.7,1-5
	c0.7-1.7,1.7-3,3-4c1.3-1,3-1.7,4.7-2.3s3.3-1,5.3-1s4,0.3,6.3,1c2,0.7,3.7,2,5.3,3.3c0.3,0.7,1,1.3,1.3,2.3c0.3,1,0.7,1.7,1,2.7
	C75.3,344,75.3,344,75.3,344z"/>
<path id="path41" fill="#FFFFFF" stroke="#FFFFFF" stroke-width="1.3333" stroke-miterlimit="10" d="M99,380v-45h16v-1.3H81.7v1.3
	h16v45H99L99,380z"/>
<path id="path43" fill="none" stroke="#FFFFFF" stroke-width="1.3333" stroke-miterlimit="10" d="M123.3,335c15,0,15,0,15,0
	c2,0,4,0.3,5.3,1c1.7,0.7,3,1.7,4,2.7c1,1.3,2,2.7,2.3,4c0.7,1.7,1,3,1,4.7c0,1.3-0.3,3-1,4.3c-0.3,1.7-1.3,3-2.3,4s-2.3,2-4,2.7
	c-1.3,0.7-3.3,1.3-5.3,1.3c-9.3,0-9.3,0-9.3,0c0,1,0,1,0,1c21.3,19.3,21.3,19.3,21.3,19.3c2.3,0,2.3,0,2.3,0
	c-21.3-19-21.3-19-21.3-19c7,0,7,0,7,0c2.3,0,4.3-0.7,6-1.3c1.7-0.7,3.3-1.7,4.3-3c1.3-1.3,2.3-2.7,2.7-4.3c0.7-1.7,1-3.3,1-5
	c0-1.7-0.3-3.3-1-5c-0.3-1.7-1.3-3.3-2.7-4.3c-1-1.3-2.7-2.3-4.3-3.3c-1.7-0.7-3.7-1-6-1c-16.3,0-16.3,0-16.3,0
	c0,46.3,0,46.3,0,46.3c1.3,0,1.3,0,1.3,0C123.3,335,123.3,335,123.3,335z"/>
<path id="path45" fill="none" stroke="#FFFFFF" stroke-width="1.3333" stroke-miterlimit="10" d="M203.7,365.7c-1,2.7-2.7,5-4.7,7
	s-4.3,3.7-7,4.7c-2.7,1.3-5.7,2-8.7,2c-3.3,0-6-0.7-8.7-2c-2.7-1-5.3-2.7-7.3-4.7s-3.3-4.3-4.7-7c-1-3-1.7-5.7-1.7-9
	c0-3,0.7-6,1.7-8.7c1.3-2.7,2.7-5,4.7-7s4.7-3.7,7.3-5c2.7-1,5.3-1.7,8.7-1.7c3,0,6,0.7,8.7,1.7c2.7,1.3,5,3,7,5s3.7,4.3,4.7,7
	c1.3,2.7,2,5.7,2,8.7C205.7,360,205,362.7,203.7,365.7z M161.3,366c1.3,3,3,5.3,5,7.7c2.3,2.3,4.7,4,7.7,5.3c3,1,6,1.7,9.3,1.7
	c3.3,0,6.3-0.7,9.3-1.7c2.7-1.3,5.3-3,7.3-5.3c2.3-2.3,4-4.7,5-7.7c1.3-2.7,2-6,2-9.3c0-3.3-0.7-6.3-2-9.3c-1-2.7-2.7-5.3-5-7.3
	c-2-2.3-4.7-4-7.3-5.3c-3-1.3-6-1.7-9.3-1.7c-3.3,0-6.3,0.3-9.3,1.7c-3,1.3-5.3,3-7.7,5.3c-2,2-3.7,4.7-5,7.3c-1.3,3-2,6-2,9.3
	C159.3,360,160,363.3,161.3,366z"/>
<path id="path47" fill="#FFFFFF" stroke="#FFFFFF" stroke-width="1.3333" stroke-miterlimit="10" d="M216.7,333.3h-1.3V380h26.3
	v-1.3h-25V333.3L216.7,333.3z"/>
<path id="path55" fill="#FFFFFF" stroke="#92CC27" stroke-width="1.3333" stroke-miterlimit="10" d="M239.3,333.3l17,27.7v19h1.3
	v-19l17.3-27.7h-2l-16,26l-16-26H239.3L239.3,333.3z"/>
<path id="path75" fill="#FFFFFF" stroke="#FFFFFF" stroke-width="1.3333" stroke-miterlimit="10" d="M297.7,380v-45h16v-1.3h-33.3
	v1.3h16v45H297.7L297.7,380z"/>
<path id="path77" fill="#FFFFFF" stroke="#FFFFFF" stroke-width="1.3333" stroke-miterlimit="10" d="M319.7,357.3h23.7V356h-23.7
	v-21.3H344v-1.3h-26V380h26v-1.3h-24.3V357.3L319.7,357.3z"/>
<path id="path79" fill="none" stroke="#FFFFFF" stroke-width="1.3333" stroke-miterlimit="10" d="M380.7,344
	c1.7-0.3,1.7-0.3,1.7-0.3C382,343,382,343,382,343c-0.3-1.7-1-3.3-2-4.3c-0.7-1.3-2-2.7-3.3-3.3c-1.3-1-3-1.7-4.7-2
	c-1.7-0.3-3.3-0.7-5-0.7c-2,0-4,0.3-6,1c-2,0.3-3.7,1.3-5.3,2.3c-1.3,1.3-2.7,2.7-3.7,4.3c-0.7,1.7-1,3.7-1,6c0.3,2.7,1,4.3,2,6
	c1,1.3,2.3,2.3,3.7,3c1.7,0.7,3.3,1.3,5,1.3c2,0.3,3.7,0.7,5.7,0.7c1.3,0.3,3,0.3,4.7,0.7s3,0.7,4.3,1.3c1.3,0.3,2.3,1,3.3,2
	s1.7,2.3,2,3.7c0.3,1,0.3,1.7,0.3,2.7c0,1.7-0.3,3.3-1.3,5c-1,1.3-2,2.7-3.7,3.7c-1.3,1-3,1.7-4.7,2.3c-1.7,0.3-3.7,0.7-5.3,0.7
	s-3.3-0.3-5-0.7c-1.3-0.3-3-1-4.3-2c-1.3-1-2.7-2-3.7-3.3c-1-1-1.3-2.7-1.7-4.3c0-0.7,0-0.7,0-0.7c-1.7,0.3-1.7,0.3-1.7,0.3
	c0,0.7,0,0.7,0,0.7c0.3,1.7,1,3.3,2,5c1,1.3,2.3,2.7,4,3.7c1.3,0.7,3,1.7,5,2c1.7,0.7,3.3,0.7,5,0.7c2,0,4-0.3,6-0.7
	c2-0.7,4-1.7,5.7-2.7c1.3-1,2.7-2.3,3.7-4c1-1.7,1.7-3.7,1.7-5.7c0-0.7-0.3-1-0.3-1.3c0-0.7,0-1,0-1.7c-0.7-1.7-1.3-3-2.3-4.3
	c-1-1-2.3-1.7-3.7-2.3c-1.7-0.7-3-1-5-1.3c-1.7-0.3-3.3-0.7-5-0.7c-1.7-0.3-3.3-0.3-5-0.7c-1.7-0.3-3.3-0.7-4.7-1.3
	c-1.3-0.7-2.7-1.7-3.3-2.7c-1-1.3-1.7-3-1.7-5c-0.3-2,0-3.7,1-5c0.7-1.7,1.7-3,3-4c1.3-1,3-1.7,4.7-2.3c1.7-0.7,3.3-1,5.3-1
	s4,0.3,6.3,1c2,0.7,3.7,2,5,3.3c0.7,0.7,1.3,1.3,1.7,2.3c0.3,1,0.7,1.7,1,2.7C380.7,344,380.7,344,380.7,344z"/>
</svg>
